# xmcd CD database file
#
# Track frame offsets:
#	150
#	16236
#	34016
#	45582
#	58449
#	69842
#	85401
#	105321
#	125192
#	142515
#	155990
#
# Disc length: 2231 seconds
#
# Revision: 0
# Processed by: cddbd v1.5.2PL0 Copyright (c) Steve Scherf et al.
# Submitted via: CDex 1.51
#
DISCID=9008b50b
DTITLE=Franska Trion - Känner för kärlek
DYEAR=2009
DGENRE=Blues
TTITLE0=Liza Lee
TTITLE1=Känner för kärlek
TTITLE2=Röda segel i solen
TTITLE3=Du är så skön
TTITLE4=Marie O Marie
TTITLE5=Jag ser dig
TTITLE6=Igår natt
TTITLE7=Vindarna växlar
TTITLE8=Reser lätt
TTITLE9=Lätt liv
TTITLE10=Leta efter ljuset
EXTD=YEAR: 2009
EXTT0=
EXTT1=
EXTT2=
EXTT3=
EXTT4=
EXTT5=
EXTT6=
EXTT7=
EXTT8=
EXTT9=
EXTT10=
PLAYORDER=
